<svg width="14" height="13" viewBox="0 0 14 13" fill="none" xmlns="http://www.w3.org/2000/svg">
<path d="M12.2385 1.62081C11.9358 1.31799 11.5765 1.07778 11.1809 0.913892C10.7854 0.750003 10.3615 0.665649 9.93333 0.665649C9.50519 0.665649 9.08124 0.750003 8.68571 0.913892C8.29018 1.07778 7.93082 1.31799 7.62815 1.62081L7 2.24895L6.37185 1.62081C5.76048 1.00943 4.93128 0.665966 4.06666 0.665966C3.20205 0.665966 2.37285 1.00943 1.76148 1.62081C1.15011 2.23218 0.806641 3.06138 0.806641 3.92599C0.806641 4.7906 1.15011 5.6198 1.76148 6.23118L2.38963 6.85932L7 11.4697L11.6104 6.85932L12.2385 6.23118C12.5413 5.92851 12.7815 5.56914 12.9454 5.17361C13.1093 4.77808 13.1937 4.35413 13.1937 3.92599C13.1937 3.49785 13.1093 3.0739 12.9454 2.67837C12.7815 2.28284 12.5413 1.92348 12.2385 1.62081Z" fill="#6100C2" stroke="#6100C2" stroke-width="1.18519" stroke-linecap="round" stroke-linejoin="round"/>
</svg>
